<svg width="100" height="100" viewBox="0 0 100 100" fill="none" xmlns="http://www.w3.org/2000/svg">
<rect width="100" height="100" fill="#1E1E1E"/>
<rect y="50" width="100" height="50" fill="#3B82F6"/>
<rect width="100" height="50" fill="#EF4444"/>
<g filter="url(#filter0_d_0_1)">
<path d="M25.8286 44.0317C25.8286 43.7993 25.7944 43.5908 25.7261 43.4062C25.6577 43.2148 25.5312 43.0371 25.3467 42.873C25.1621 42.709 24.8955 42.5449 24.5469 42.3809C24.2051 42.21 23.7539 42.0322 23.1934 41.8477C22.5371 41.6289 21.9048 41.3828 21.2964 41.1094C20.688 40.8291 20.1445 40.5044 19.666 40.1353C19.1875 39.7593 18.8081 39.3218 18.5278 38.8228C18.2476 38.3169 18.1074 37.729 18.1074 37.0591C18.1074 36.4165 18.251 35.8389 18.5381 35.3262C18.8252 34.8066 19.2251 34.3657 19.7378 34.0034C20.2573 33.6343 20.8657 33.354 21.563 33.1626C22.2603 32.9644 23.0225 32.8652 23.8496 32.8652C24.9434 32.8652 25.9072 33.0566 26.7412 33.4395C27.582 33.8154 28.2383 34.3521 28.71 35.0493C29.1885 35.7397 29.4277 36.5566 29.4277 37.5H25.8491C25.8491 37.124 25.7705 36.7925 25.6133 36.5054C25.4629 36.2183 25.2339 35.9927 24.9263 35.8286C24.6187 35.6646 24.2324 35.5825 23.7676 35.5825C23.3164 35.5825 22.937 35.6509 22.6294 35.7876C22.3218 35.9243 22.0894 36.1089 21.9321 36.3413C21.7749 36.5669 21.6963 36.8164 21.6963 37.0898C21.6963 37.3154 21.7578 37.5205 21.8809 37.7051C22.0107 37.8828 22.1919 38.0503 22.4243 38.2075C22.6636 38.3647 22.9507 38.5151 23.2856 38.6587C23.6274 38.8022 24.0103 38.9424 24.4341 39.0791C25.2271 39.332 25.9312 39.6157 26.5464 39.9302C27.1685 40.2378 27.6914 40.5898 28.1152 40.9863C28.5459 41.376 28.8706 41.8203 29.0894 42.3193C29.3149 42.8184 29.4277 43.3823 29.4277 44.0112C29.4277 44.6812 29.2979 45.2759 29.0381 45.7954C28.7783 46.3149 28.4058 46.7559 27.9204 47.1182C27.4351 47.4736 26.854 47.7437 26.1772 47.9282C25.5005 48.1128 24.7451 48.2051 23.9111 48.2051C23.1455 48.2051 22.3901 48.1094 21.645 47.918C20.9067 47.7197 20.2368 47.4189 19.6353 47.0156C19.0337 46.6055 18.5518 46.0825 18.1895 45.4468C17.834 44.8042 17.6562 44.042 17.6562 43.1602H21.2656C21.2656 43.5977 21.3237 43.9668 21.4399 44.2676C21.5562 44.5684 21.7271 44.811 21.9526 44.9956C22.1782 45.1733 22.4551 45.3032 22.7832 45.3853C23.1113 45.4604 23.4873 45.498 23.9111 45.498C24.3691 45.498 24.7383 45.4331 25.0186 45.3032C25.2988 45.1665 25.5039 44.9888 25.6338 44.77C25.7637 44.5444 25.8286 44.2983 25.8286 44.0317ZM39.7739 42.9448H43.3628C43.3149 43.9839 43.0347 44.8999 42.522 45.6929C42.0093 46.4858 41.2983 47.1045 40.3892 47.5488C39.4868 47.9863 38.4204 48.2051 37.1899 48.2051C36.1919 48.2051 35.2998 48.0376 34.5137 47.7026C33.7344 47.3677 33.0713 46.8857 32.5244 46.2568C31.9844 45.6279 31.5708 44.8657 31.2837 43.9702C31.0034 43.0747 30.8633 42.0664 30.8633 40.9453V40.1353C30.8633 39.0142 31.0103 38.0059 31.3042 37.1104C31.605 36.208 32.0288 35.4424 32.5757 34.8135C33.1294 34.1777 33.7925 33.6924 34.5649 33.3574C35.3374 33.0225 36.1953 32.855 37.1387 32.855C38.4375 32.855 39.5347 33.0874 40.4302 33.5522C41.3257 34.0171 42.0195 34.6562 42.5117 35.4697C43.0039 36.2764 43.2944 37.1958 43.3833 38.228H39.7944C39.7808 37.6675 39.6851 37.1992 39.5073 36.8232C39.3296 36.4404 39.0493 36.1533 38.6665 35.9619C38.2837 35.7705 37.7744 35.6748 37.1387 35.6748C36.6943 35.6748 36.3081 35.7568 35.98 35.9209C35.6519 36.085 35.3784 36.3447 35.1597 36.7002C34.9409 37.0557 34.7769 37.5171 34.6675 38.0845C34.5649 38.645 34.5137 39.3218 34.5137 40.1147V40.9453C34.5137 41.7383 34.5615 42.415 34.6572 42.9756C34.7529 43.5361 34.9067 43.9941 35.1187 44.3496C35.3306 44.7051 35.604 44.9683 35.939 45.1392C36.2808 45.3032 36.6978 45.3853 37.1899 45.3853C37.7368 45.3853 38.1982 45.2998 38.5742 45.1289C38.9502 44.9512 39.2407 44.6846 39.4458 44.3291C39.6509 43.9668 39.7603 43.5054 39.7739 42.9448ZM57.6978 40.2378V40.8428C57.6978 41.9844 57.5371 43.0098 57.2158 43.9189C56.9014 44.8213 56.4536 45.5938 55.8726 46.2363C55.2915 46.8721 54.6045 47.3608 53.8115 47.7026C53.0186 48.0376 52.1436 48.2051 51.1865 48.2051C50.2227 48.2051 49.3408 48.0376 48.541 47.7026C47.748 47.3608 47.0576 46.8721 46.4697 46.2363C45.8887 45.5938 45.4375 44.8213 45.1162 43.9189C44.8018 43.0098 44.6445 41.9844 44.6445 40.8428V40.2378C44.6445 39.0962 44.8018 38.0708 45.1162 37.1616C45.4375 36.2524 45.8853 35.48 46.4595 34.8442C47.0405 34.2017 47.7275 33.7129 48.5205 33.3779C49.3203 33.0361 50.2021 32.8652 51.166 32.8652C52.123 32.8652 52.998 33.0361 53.791 33.3779C54.5908 33.7129 55.2812 34.2017 55.8623 34.8442C56.4434 35.48 56.8945 36.2524 57.2158 37.1616C57.5371 38.0708 57.6978 39.0962 57.6978 40.2378ZM54.0474 40.8428V40.2173C54.0474 39.479 53.9824 38.8296 53.8525 38.269C53.7295 37.7017 53.5449 37.2266 53.2988 36.8438C53.0527 36.4609 52.7485 36.1738 52.3862 35.9824C52.0308 35.7842 51.624 35.6851 51.166 35.6851C50.6875 35.6851 50.2705 35.7842 49.915 35.9824C49.5596 36.1738 49.2622 36.4609 49.0229 36.8438C48.7837 37.2266 48.6025 37.7017 48.4795 38.269C48.3633 38.8296 48.3052 39.479 48.3052 40.2173V40.8428C48.3052 41.5742 48.3633 42.2236 48.4795 42.791C48.6025 43.3516 48.7837 43.8267 49.0229 44.2163C49.269 44.606 49.5698 44.8999 49.9253 45.0981C50.2876 45.2964 50.708 45.3955 51.1865 45.3955C51.6445 45.3955 52.0513 45.2964 52.4067 45.0981C52.7622 44.8999 53.0596 44.606 53.2988 44.2163C53.5449 43.8267 53.7295 43.3516 53.8525 42.791C53.9824 42.2236 54.0474 41.5742 54.0474 40.8428ZM59.564 33.0703H65.4395C66.5879 33.0703 67.5859 33.2412 68.4336 33.583C69.2812 33.9248 69.9341 34.4307 70.3921 35.1006C70.8569 35.7705 71.0894 36.5977 71.0894 37.582C71.0894 38.4365 70.9561 39.1509 70.6895 39.7251C70.4229 40.2993 70.0503 40.7744 69.5718 41.1504C69.1001 41.5195 68.5498 41.8237 67.9209 42.063L66.7417 42.7295H61.8096L61.7891 39.9507H65.4395C65.8975 39.9507 66.2769 39.8687 66.5776 39.7046C66.8784 39.5405 67.104 39.3081 67.2544 39.0073C67.4116 38.6997 67.4902 38.334 67.4902 37.9102C67.4902 37.4795 67.4116 37.1104 67.2544 36.8027C67.0972 36.4951 66.8647 36.2593 66.5571 36.0952C66.2563 35.9312 65.8838 35.8491 65.4395 35.8491H63.1631V48H59.564V33.0703ZM67.7363 48L64.4346 41.3965L68.249 41.376L71.5918 47.8462V48H67.7363ZM83.5376 45.2314V48H75.5806V45.2314H83.5376ZM76.8623 33.0703V48H73.2632V33.0703H76.8623ZM82.5122 38.9971V41.6733H75.5806V38.9971H82.5122ZM83.5684 33.0703V35.8491H75.5806V33.0703H83.5684Z" fill="white"/>
<path d="M24.229 60.6528H20.3838L20.3633 58.2944H23.4805C24.041 58.2944 24.4888 58.2329 24.8237 58.1099C25.1587 57.98 25.4014 57.792 25.5518 57.5459C25.709 57.2998 25.7876 56.9922 25.7876 56.623C25.7876 56.1992 25.709 55.8574 25.5518 55.5977C25.3945 55.3379 25.145 55.1499 24.8032 55.0337C24.4683 54.9106 24.0342 54.8491 23.501 54.8491H21.7373V67H18.1382V52.0703H23.501C24.4238 52.0703 25.2476 52.1558 25.9722 52.3267C26.6968 52.4907 27.312 52.7437 27.8179 53.0854C28.3306 53.4272 28.7202 53.8579 28.9868 54.3774C29.2534 54.8901 29.3867 55.4951 29.3867 56.1924C29.3867 56.8008 29.2568 57.3716 28.9971 57.9048C28.7373 58.438 28.3032 58.8721 27.6948 59.207C27.0933 59.5352 26.2695 59.7061 25.2236 59.7197L24.229 60.6528ZM24.0854 67H19.5122L20.7427 64.2314H24.0854C24.5776 64.2314 24.9707 64.1562 25.2646 64.0059C25.5654 63.8486 25.7808 63.6436 25.9106 63.3906C26.0474 63.1309 26.1157 62.8438 26.1157 62.5293C26.1157 62.1465 26.0508 61.8149 25.9209 61.5347C25.7979 61.2544 25.5996 61.0391 25.3262 60.8887C25.0527 60.7314 24.687 60.6528 24.229 60.6528H21.2041L21.2246 58.2944H24.8442L25.6851 59.2378C26.6831 59.1968 27.4727 59.3369 28.0537 59.6582C28.6416 59.9795 29.062 60.4033 29.3149 60.9297C29.5679 61.4561 29.6943 62.0063 29.6943 62.5806C29.6943 63.5581 29.4824 64.375 29.0586 65.0312C28.6416 65.6875 28.0161 66.1797 27.1821 66.5078C26.3481 66.8359 25.3159 67 24.0854 67ZM44.3267 59.2378V59.8428C44.3267 60.9844 44.166 62.0098 43.8447 62.9189C43.5303 63.8213 43.0825 64.5938 42.5015 65.2363C41.9204 65.8721 41.2334 66.3608 40.4404 66.7026C39.6475 67.0376 38.7725 67.2051 37.8154 67.2051C36.8516 67.2051 35.9697 67.0376 35.1699 66.7026C34.377 66.3608 33.6865 65.8721 33.0986 65.2363C32.5176 64.5938 32.0664 63.8213 31.7451 62.9189C31.4307 62.0098 31.2734 60.9844 31.2734 59.8428V59.2378C31.2734 58.0962 31.4307 57.0708 31.7451 56.1616C32.0664 55.2524 32.5142 54.48 33.0884 53.8442C33.6694 53.2017 34.3564 52.7129 35.1494 52.3779C35.9492 52.0361 36.8311 51.8652 37.7949 51.8652C38.752 51.8652 39.627 52.0361 40.4199 52.3779C41.2197 52.7129 41.9102 53.2017 42.4912 53.8442C43.0723 54.48 43.5234 55.2524 43.8447 56.1616C44.166 57.0708 44.3267 58.0962 44.3267 59.2378ZM40.6763 59.8428V59.2173C40.6763 58.479 40.6113 57.8296 40.4814 57.269C40.3584 56.7017 40.1738 56.2266 39.9277 55.8438C39.6816 55.4609 39.3774 55.1738 39.0151 54.9824C38.6597 54.7842 38.2529 54.6851 37.7949 54.6851C37.3164 54.6851 36.8994 54.7842 36.5439 54.9824C36.1885 55.1738 35.8911 55.4609 35.6519 55.8438C35.4126 56.2266 35.2314 56.7017 35.1084 57.269C34.9922 57.8296 34.9341 58.479 34.9341 59.2173V59.8428C34.9341 60.5742 34.9922 61.2236 35.1084 61.791C35.2314 62.3516 35.4126 62.8267 35.6519 63.2163C35.8979 63.606 36.1987 63.8999 36.5542 64.0981C36.9165 64.2964 37.3369 64.3955 37.8154 64.3955C38.2734 64.3955 38.6802 64.2964 39.0356 64.0981C39.3911 63.8999 39.6885 63.606 39.9277 63.2163C40.1738 62.8267 40.3584 62.3516 40.4814 61.791C40.6113 61.2236 40.6763 60.5742 40.6763 59.8428ZM52.2939 55.208L48.6538 67H44.7881L50.2739 52.0703H52.7246L52.2939 55.208ZM55.3086 67L51.6582 55.208L51.1865 52.0703H53.668L59.1846 67H55.3086ZM55.165 61.4321V64.2109H47.5054V61.4321H55.165ZM60.2817 52.0703H66.1572C67.3057 52.0703 68.3037 52.2412 69.1514 52.583C69.999 52.9248 70.6519 53.4307 71.1099 54.1006C71.5747 54.7705 71.8071 55.5977 71.8071 56.582C71.8071 57.4365 71.6738 58.1509 71.4072 58.7251C71.1406 59.2993 70.7681 59.7744 70.2896 60.1504C69.8179 60.5195 69.2676 60.8237 68.6387 61.063L67.4595 61.7295H62.5273L62.5068 58.9507H66.1572C66.6152 58.9507 66.9946 58.8687 67.2954 58.7046C67.5962 58.5405 67.8218 58.3081 67.9722 58.0073C68.1294 57.6997 68.208 57.334 68.208 56.9102C68.208 56.4795 68.1294 56.1104 67.9722 55.8027C67.8149 55.4951 67.5825 55.2593 67.2749 55.0952C66.9741 54.9312 66.6016 54.8491 66.1572 54.8491H63.8809V67H60.2817V52.0703ZM68.4541 67L65.1523 60.3965L68.9668 60.376L72.3096 66.8462V67H68.4541ZM78.8311 67H75.519L75.5396 64.2314H78.8311C79.5146 64.2314 80.0923 64.0674 80.564 63.7393C81.0425 63.4111 81.4048 62.9224 81.6509 62.2729C81.9038 61.6167 82.0303 60.8101 82.0303 59.853V59.207C82.0303 58.4893 81.9585 57.8604 81.8149 57.3203C81.6782 56.7734 81.4731 56.3188 81.1997 55.9565C80.9263 55.5874 80.5845 55.3105 80.1743 55.126C79.771 54.9414 79.3062 54.8491 78.7798 54.8491H75.4575V52.0703H78.7798C79.7915 52.0703 80.7178 52.2446 81.5586 52.5933C82.4062 52.9351 83.1377 53.4272 83.7529 54.0698C84.375 54.7056 84.8535 55.4609 85.1885 56.3359C85.5303 57.2041 85.7012 58.168 85.7012 59.2275V59.853C85.7012 60.9058 85.5303 61.8696 85.1885 62.7446C84.8535 63.6196 84.3784 64.375 83.7632 65.0107C83.1479 65.6465 82.4199 66.1387 81.5791 66.4873C80.7451 66.8291 79.8291 67 78.8311 67ZM77.5801 52.0703V67H73.981V52.0703H77.5801Z" fill="white"/>
</g>
<defs>
<filter id="filter0_d_0_1" x="17.6562" y="32.855" width="70.0449" height="36.3501" filterUnits="userSpaceOnUse" color-interpolation-filters="sRGB">
<feFlood flood-opacity="0" result="BackgroundImageFix"/>
<feColorMatrix in="SourceAlpha" type="matrix" values="0 0 0 0 0 0 0 0 0 0 0 0 0 0 0 0 0 0 127 0" result="hardAlpha"/>
<feOffset dx="1" dy="1"/>
<feGaussianBlur stdDeviation="0.5"/>
<feComposite in2="hardAlpha" operator="out"/>
<feColorMatrix type="matrix" values="0 0 0 0 0 0 0 0 0 0 0 0 0 0 0 0 0 0 0.25 0"/>
<feBlend mode="normal" in2="BackgroundImageFix" result="effect1_dropShadow_0_1"/>
<feBlend mode="normal" in="SourceGraphic" in2="effect1_dropShadow_0_1" result="shape"/>
</filter>
</defs>
</svg>
